<svg width="30" height="30" viewBox="0 0 30 30" fill="none" xmlns="http://www.w3.org/2000/svg">
<circle cx="15" cy="15" r="15" fill="#3A5BA0"/>
<path d="M12.8249 9.61153C12.8249 10.0425 12.8249 11.9659 12.8249 11.9659H11.1V14.8448H12.8249V23.3998H16.3681V14.845H18.7458C18.7458 14.845 18.9685 13.4646 19.0764 11.9553C18.7669 11.9553 16.3815 11.9553 16.3815 11.9553C16.3815 11.9553 16.3815 10.2804 16.3815 9.98684C16.3815 9.69263 16.7678 9.29689 17.1497 9.29689C17.5308 9.29689 18.3351 9.29689 19.0801 9.29689C19.0801 8.90493 19.0801 7.5506 19.0801 6.2998C18.0856 6.2998 16.9541 6.2998 16.4553 6.2998C12.7373 6.29961 12.8249 9.18136 12.8249 9.61153Z" fill="white"/>
</svg>
