<svg width="31" height="30" viewBox="0 0 31 30" fill="none" xmlns="http://www.w3.org/2000/svg">
<circle cx="15.1" cy="15" r="15" fill="#0077B7"/>
<path d="M12.2089 12.0073H9.39999V20.6027H12.2089V12.0073Z" fill="white"/>
<path d="M19.86 12.1081C19.8302 12.0987 19.8019 12.0886 19.7705 12.08C19.7328 12.0714 19.6951 12.0644 19.6567 12.0581C19.5075 12.0284 19.3442 12.0073 19.1527 12.0073C17.5151 12.0073 16.4764 13.1927 16.1342 13.6506V12.0073H13.3253V20.6027H16.1342V15.9143C16.1342 15.9143 18.2569 12.9716 19.1527 15.1329C19.1527 17.0622 19.1527 20.6027 19.1527 20.6027H21.9608V14.8024C21.9608 13.5037 21.0666 12.4215 19.86 12.1081Z" fill="white"/>
<path d="M10.7738 10.835C11.5326 10.835 12.1477 10.2228 12.1477 9.46754C12.1477 8.71232 11.5326 8.1001 10.7738 8.1001C10.0151 8.1001 9.39999 8.71232 9.39999 9.46754C9.39999 10.2228 10.0151 10.835 10.7738 10.835Z" fill="white"/>
</svg>
